<?xml version="1.0" encoding="utf-8"?>
<!-- Generator: Adobe Illustrator 13.0.0, SVG Export Plug-In . SVG Version: 6.00 Build 14948)  -->
<!DOCTYPE svg PUBLIC "-//W3C//DTD SVG 1.1//EN" "http://www.w3.org/Graphics/SVG/1.1/DTD/svg11.dtd">
<svg version="1.1" id="Layer_1" xmlns="http://www.w3.org/2000/svg" xmlns:xlink="http://www.w3.org/1999/xlink" x="0px" y="0px"
	 width="360px" height="390px" viewBox="0 0 360 390" enable-background="new 0 0 360 390" xml:space="preserve">
<g>
	<rect x="15.656" y="52.071" fill="#EDF2F6" width="39.797" height="40.102"/>
	<g>
		<path fill="#FB5D59" d="M87.752,10.383v62.034H26.195V12.116v-1.733H87.752L87.752,10.383z M27.914,12.116v1.735V12.116
			L27.914,12.116z M84.312,13.852H29.635v55.097h54.677V13.852L84.312,13.852z"/>
	</g>
</g>
<g>
	<rect x="309.563" y="268.752" fill="#FB5D59" width="48.301" height="48.665"/>
	<rect x="290.891" y="292.21" fill="#FFE600" width="48.299" height="48.668"/>
</g>
<g>
	<polygon fill="#EDF2F6" points="344.026,81.816 317.155,54.741 307.707,91.339 	"/>
	<g>
		<path fill="#FFE600" d="M339.137,59.767l2.264,2.281l-42.438,11.124l11.039-42.765L339.137,59.767L339.137,59.767z M311.938,37.58
			l-7.858,30.434l30.205-7.92L311.938,37.58L311.938,37.58z"/>
	</g>
</g>
<g>
	<g>
		<path fill="#FB5D59" d="M4.547,293.443c0-15.104,12.15-27.346,27.141-27.348l0,0c14.995,0.002,27.142,12.244,27.142,27.348l0,0
			c0,15.108-12.147,27.351-27.142,27.354l0,0C16.697,320.794,4.547,308.553,4.547,293.443L4.547,293.443z M12.755,293.443
			c0.02,10.533,8.48,19.061,18.933,19.078l0,0c10.457-0.019,18.916-8.545,18.934-19.078l0,0
			c-0.018-10.531-8.477-19.055-18.934-19.075l0,0C21.235,274.389,12.774,282.912,12.755,293.443L12.755,293.443z"/>
	</g>
	<path fill="#FFE600" d="M70.928,316.506c0,12.83-10.321,23.242-23.059,23.242c-12.74,0-23.063-10.412-23.063-23.242
		c0-12.837,10.323-23.242,23.063-23.242C60.607,293.264,70.928,303.669,70.928,316.506z"/>
</g>
</svg>
