<?xml version="1.0" encoding="utf-8"?>
<!-- Generator: Adobe Illustrator 19.0.0, SVG Export Plug-In . SVG Version: 6.00 Build 0)  -->
<svg version="1.1" id="Layer_1" xmlns="http://www.w3.org/2000/svg" xmlns:xlink="http://www.w3.org/1999/xlink" x="0px" y="0px"
	 viewBox="-55 177 500 440" style="enable-background:new -55 177 500 440;" xml:space="preserve">
<style type="text/css">
	.st0{fill:#2988E5;}
	.st1{fill:#3374D1;}
	.st2{fill:#256ED8;}
</style>
<path class="st0" d="M411.1,378.2c-1.4-54.8-16.7-87.2-36.3-109.2c-9.5-10.8-23-22-41.4-33.6c-48.9-30.9-171.9-16.4-206.7,29
	c-9.9,12.9-14,32.2-14,53.9C51,338.7,3.9,382-16.9,403.6c-23.2,21.6-38.1,54.8-38.1,92c0,65.2,45.5,118,101.7,118
	c16.4,0,31.9-4.5,45.7-12.5c24.8,6.9,52.5,10.7,81.7,10.7c29.1,0,56.6-3.8,81.4-10.6c20.3,8.8,39.5,13.7,53.6,12.5
	c39-3.1,70.9-17.8,90-123c8-39.3,11.7-72,12.1-99.5c0.1-0.7,0.1-1.4,0.2-2.1C411.6,385.3,411.5,381.7,411.1,378.2z"/>
<path class="st1" d="M59.1,254.9c24.7,18,15.7,35-4.8,56C32.1,333.5-16.7,354-30.3,340c-13.6-14-1.8-47.4,21-69.5
	C13.4,248.4,43.3,243.4,59.1,254.9z"/>
<path class="st2" d="M408.6,524.8c-4.6,13.9-8.8,21.7,8.5,30.7c19.1,10,25.9-0.4,27.6-18.6c1.3-14.6-1.5-28.6-10.8-31.7
	C424.5,502.2,413.2,510.9,408.6,524.8z"/>
</svg>
